<?xml version="1.0" encoding="UTF-8" standalone="no"?>
<!DOCTYPE svg PUBLIC "-//W3C//DTD SVG 1.1//EN" "http://www.w3.org/Graphics/SVG/1.1/DTD/svg11.dtd"
[
<!ATTLIST g
  xmlns:vectornator CDATA #FIXED "http://vectornator.io"
  vectornator:layerName CDATA #IMPLIED >
<!ATTLIST g
  xmlns:vectornator CDATA #FIXED "http://vectornator.io"
  vectornator:mask CDATA #IMPLIED >
<!ATTLIST text
  xmlns:vectornator CDATA #FIXED "http://vectornator.io"
  vectornator:width CDATA #IMPLIED >
<!ATTLIST text
  xmlns:vectornator CDATA #FIXED "http://vectornator.io"
  vectornator:text CDATA #IMPLIED >

<!ATTLIST path
  xmlns:vectornator CDATA #FIXED "http://vectornator.io"
  vectornator:blendMode CDATA #IMPLIED >
<!ATTLIST path
  xmlns:vectornator CDATA #FIXED "http://vectornator.io"
  vectornator:shadowColor CDATA #IMPLIED >
<!ATTLIST path
  xmlns:vectornator CDATA #FIXED "http://vectornator.io"
  vectornator:shadowOpacity CDATA #IMPLIED >
<!ATTLIST path
  xmlns:vectornator CDATA #FIXED "http://vectornator.io"
  vectornator:shadowRadius CDATA #IMPLIED >
<!ATTLIST path
  xmlns:vectornator CDATA #FIXED "http://vectornator.io"
  vectornator:shadowOffset CDATA #IMPLIED >
<!ATTLIST path
  xmlns:vectornator CDATA #FIXED "http://vectornator.io"
  vectornator:shadowAngle CDATA #IMPLIED >

<!ATTLIST image
  xmlns:vectornator CDATA #FIXED "http://vectornator.io"
  vectornator:blendMode CDATA #IMPLIED >
<!ATTLIST image
  xmlns:vectornator CDATA #FIXED "http://vectornator.io"
  vectornator:shadowColor CDATA #IMPLIED >
<!ATTLIST image
  xmlns:vectornator CDATA #FIXED "http://vectornator.io"
  vectornator:shadowOpacity CDATA #IMPLIED >
<!ATTLIST image
  xmlns:vectornator CDATA #FIXED "http://vectornator.io"
  vectornator:shadowRadius CDATA #IMPLIED >
<!ATTLIST image
  xmlns:vectornator CDATA #FIXED "http://vectornator.io"
  vectornator:shadowOffset CDATA #IMPLIED >
<!ATTLIST image
  xmlns:vectornator CDATA #FIXED "http://vectornator.io"
  vectornator:shadowAngle CDATA #IMPLIED >

<!ATTLIST g
  xmlns:vectornator CDATA #FIXED "http://vectornator.io"
  vectornator:blendMode CDATA #IMPLIED >
<!ATTLIST g
  xmlns:vectornator CDATA #FIXED "http://vectornator.io"
  vectornator:shadowColor CDATA #IMPLIED >
<!ATTLIST g
  xmlns:vectornator CDATA #FIXED "http://vectornator.io"
  vectornator:shadowOpacity CDATA #IMPLIED >
<!ATTLIST g
  xmlns:vectornator CDATA #FIXED "http://vectornator.io"
  vectornator:shadowRadius CDATA #IMPLIED >
<!ATTLIST g
  xmlns:vectornator CDATA #FIXED "http://vectornator.io"
  vectornator:shadowOffset CDATA #IMPLIED >
<!ATTLIST g
  xmlns:vectornator CDATA #FIXED "http://vectornator.io"
  vectornator:shadowAngle CDATA #IMPLIED >

<!ENTITY % SVG.filter.extra.content  "| feDropShadow" >
<!ELEMENT feDropShadow EMPTY>
<!ATTLIST feDropShadow
  xmlns:svg CDATA #FIXED "http://www.w3.org/Graphics/SVG/1.1/DTD/svg11.dtd"
  dx CDATA #IMPLIED>
<!ATTLIST feDropShadow
  xmlns:svg CDATA #FIXED "http://www.w3.org/Graphics/SVG/1.1/DTD/svg11.dtd"
  dy CDATA #IMPLIED>
<!ATTLIST feDropShadow
  xmlns:svg CDATA #FIXED "http://www.w3.org/Graphics/SVG/1.1/DTD/svg11.dtd"
  stdDeviation CDATA #IMPLIED>
<!ATTLIST feDropShadow
  xmlns:svg CDATA #FIXED "http://www.w3.org/Graphics/SVG/1.1/DTD/svg11.dtd"
  flood-opacity CDATA #IMPLIED>
<!ATTLIST feDropShadow
  xmlns:svg CDATA #FIXED "http://www.w3.org/Graphics/SVG/1.1/DTD/svg11.dtd"
  in CDATA #IMPLIED>
<!ATTLIST feDropShadow
  xmlns:svg CDATA #FIXED "http://www.w3.org/Graphics/SVG/1.1/DTD/svg11.dtd"
  result CDATA #IMPLIED>
<!ATTLIST feDropShadow
  xmlns:svg CDATA #FIXED "http://www.w3.org/Graphics/SVG/1.1/DTD/svg11.dtd"
  flood-color CDATA #IMPLIED>
]
>
<!-- Created with Vectornator (http://vectornator.io/) -->
<svg height="100%" stroke-miterlimit="10" style="fill-rule:nonzero;clip-rule:evenodd;stroke-linecap:round;stroke-linejoin:round;" version="1.1" viewBox="0 0 1080 1920" width="100%" x="0px" y="0px"  xml:space="preserve" xmlns="http://www.w3.org/2000/svg" xmlns:vectornator="http://vectornator.io" xmlns:xlink="http://www.w3.org/1999/xlink">
<defs>
<clipPath id="TextBounds">
<rect height="172.548" width="262.088" x="798.856" y="1663.12"/>
</clipPath>
<clipPath id="TextBounds_2">
<rect height="0.284" width="22.4" x="793.467" y="1844.05"/>
</clipPath>
<clipPath id="TextBounds_3">
<rect height="1.136" width="22.4" x="771.599" y="1847.46"/>
</clipPath>
<clipPath id="TextBounds_4">
<rect height="0.852" width="22.4" x="773.019" y="1854.84"/>
</clipPath>
<clipPath id="TextBounds_5">
<rect height="4.828" width="22.4" x="768.759" y="1860.52"/>
</clipPath>
</defs>
<clipPath id="ArtboardFrame">
<rect height="1920" width="1080" x="0" y="0"/>
</clipPath>
<g clip-path="url(#ArtboardFrame)" id="Layer-1" vectornator:layerName="Layer 1">
<path d="M789.405 43.1791L795.202 1826.56L1135.77 1917.85L1166.2 124.191L789.405 43.1791Z" fill="#ceccbe" fill-rule="evenodd" opacity="1" stroke="none"/>
<path d="M799.281 46.8438L296.938 49.8438C296.388 51.9446 295.859 54.0027 295.688 54.6875C291.012 73.3174 284.404 89.0077 270.344 117.875C262.321 134.346 261.439 136.223 258.469 142.75C258.136 143.481 253.764 153.01 252.469 155.844C248.426 164.688 245.312 171.205 242.125 177.5C242.058 178.239 241.973 179.866 241.969 179.938C241.832 182.15 241.762 183.135 241.594 184.375C241.445 185.472 241.216 186.421 240.906 187.438C240.192 189.786 239.132 191.846 236.844 193.656C234.661 195.383 232.294 196.084 230.031 196C226.259 195.859 222.767 193.51 220.938 190C220.462 189.087 220.208 188.29 219.969 187.438C219.908 187.221 219.816 187.03 219.75 186.75C217.899 183.13 215.657 177.628 215.656 177.625C214.201 173.8 213.576 172.25 212.688 170.688C205.513 158.076 198.516 144.495 191.438 129.562C182.456 110.617 173.749 94.8578 155.875 64.125C155.543 63.5542 154.218 61.185 153.656 60.2188C151.027 55.6996 150.329 54.3496 148.25 50.75L49.5625 51.3438L28 1832.66C28.0267 1832.66 28.0903 1832.65 28.125 1832.66C28.3936 1832.67 28.7198 1832.71 29.1562 1832.75C29.9039 1832.81 30.8046 1832.91 31.3125 1832.97C32.1481 1833.07 34.1998 1833.37 34.2188 1833.38C35.761 1833.61 36.4477 1833.7 37.2188 1833.78C39.6152 1834.02 42.1175 1834.19 45.4375 1834.38C50.2025 1834.64 55.0723 1834.79 60 1834.91C60.0921 1833.27 60.0652 1833.33 66.7188 1833.09C67.0283 1833.08 67.38 1833.06 67.8125 1833.06C68.5229 1833.07 69.4944 1833.09 70.6875 1833.12C72.9733 1833.19 76.0034 1833.3 79.0938 1833.44C87.1246 1833.8 92.4155 1834.16 94.2188 1834.56C94.4859 1834.62 94.7761 1834.76 95.0312 1834.84C95.1436 1834.84 95.2937 1834.84 95.4062 1834.84C95.8685 1834.5 96.3013 1834.01 96.8125 1833.75C99.2924 1832.51 101.484 1831.9 104.031 1831.72C106.578 1831.54 109.462 1831.79 113.281 1832.34C113.383 1832.36 113.399 1832.36 113.5 1832.38C116.122 1832.75 117.189 1832.89 118.312 1832.91C118.328 1832.91 119.979 1832.7 120.125 1832.69C122.248 1832.45 123.566 1832.4 125.188 1832.66C126.572 1832.88 127.854 1833.4 129 1834.12C129.02 1834.12 129.042 1834.13 129.062 1834.12C129.652 1834.08 131.522 1833.96 131.75 1833.94C133.184 1833.82 134.244 1833.74 135.344 1833.69C139.317 1833.5 142.316 1833.66 145.031 1834.56C145.147 1834.6 145.262 1834.71 145.375 1834.75C146.22 1834.7 147.635 1834.57 148.438 1834.56C148.682 1834.56 151.568 1834.56 154.25 1834.56C154.367 1834.53 154.584 1834.45 154.75 1834.41C155.563 1834.25 155.56 1834.24 155.781 1834.22C155.957 1834.2 156.125 1834.2 156.344 1834.19C159.034 1834 161.732 1833.97 165.719 1833.97C168.63 1830.2 171.039 1827.07 172.906 1824.34C175.148 1821.07 176.766 1818.11 180.281 1811.28C180.334 1811.18 180.353 1811.2 180.406 1811.09C183.28 1805.51 184.715 1802.86 186.688 1799.62C186.803 1799.44 192.014 1789.66 194.344 1785.56C195.143 1784.16 195.875 1782.85 196.625 1781.59C199.111 1777.44 201.322 1774.17 203.344 1771.75C204.901 1769.89 206.385 1768.45 208.188 1767.34C210.295 1766.05 212.712 1765.29 215.125 1765.41C217.538 1765.53 219.955 1766.52 222.156 1768.62C226.699 1772.98 229.283 1778.49 232.719 1788.66C232.817 1788.95 234.453 1793.91 234.906 1795.22C235.818 1797.85 236.523 1799.6 237.094 1800.69C241.016 1808.13 244.393 1815.34 249.875 1827.69C249.873 1827.62 249.812 1827.54 249.812 1827.47C249.829 1819.77 261.525 1815.89 265.375 1824.44C265.377 1824.44 265.82 1825.4 265.906 1825.59C266.017 1825.82 266.123 1826.03 266.25 1826.28C266.911 1827.59 267.642 1828.87 268.406 1830.06C270.234 1827.97 272.72 1826.56 275.875 1826.56C276.218 1826.56 276.517 1826.66 276.844 1826.69C277.347 1826.37 277.771 1825.99 278.375 1825.75C280.875 1824.75 282.922 1825.02 284.906 1825.81C285.72 1826.14 286.437 1826.54 287.188 1827.03C288.135 1827.65 289.161 1828.45 290.406 1829.5C291.342 1830.29 292.381 1831.21 293.781 1832.47C293.888 1832.56 294.515 1833.12 294.938 1833.5C294.985 1833.42 295.012 1833.33 295.062 1833.25C298.048 1828.27 303.309 1827.32 308.031 1829.16C308.733 1829.43 309.613 1830.12 310.219 1830.44C311.621 1827.39 314.539 1825.19 318.531 1825.19C319.446 1825.19 320.238 1825.39 321.031 1825.59C322.636 1825.07 324.363 1825 326 1825.41C328.039 1825.92 329.678 1826.97 331 1828.31C332.759 1827.59 334.599 1827.43 336.375 1827.75C337.668 1825.12 339.985 1823.09 343.344 1822.53C348.392 1821.69 352.492 1824.01 355.031 1827.94C357.3 1827.97 359.373 1828.68 361.219 1829.91C362.035 1829.27 362.996 1828.72 364.125 1828.34C364.728 1828.14 365.294 1828.12 365.875 1828.03C366.837 1827.03 368.011 1826.13 369.625 1825.59C370.179 1825.41 370.711 1825.37 371.25 1825.28C371.726 1824.15 372.353 1823.02 373.344 1822.03C377.431 1817.94 383.534 1818.01 387.375 1822.31C388.904 1824.03 389.741 1825.83 390.75 1828.72C390.781 1828.81 390.862 1829 390.906 1829.12C391.359 1828.88 391.844 1828.7 392.344 1828.53C391.827 1827.09 391.55 1825.71 391.781 1823.97C392.316 1819.96 395.567 1816.86 399.75 1816.66C401.675 1816.56 403.141 1817.01 404.688 1817.78C408.17 1819.52 410.948 1822.08 413.344 1825.44C414.649 1827.27 415.728 1829.35 417.156 1832.09C418.23 1830.95 419.598 1830.08 421.188 1829.69C420.835 1825.39 422.977 1821.16 428 1819.91C431.322 1819.08 434.435 1820.03 436.875 1822C438.219 1823.09 439.244 1824.33 440.281 1825.94C440.375 1826.08 440.469 1826.29 440.562 1826.44C441.415 1824.37 442.629 1822.5 444.594 1821.12C447.987 1818.75 451.279 1818.82 456.594 1819.81C459.278 1820.31 462.062 1821.01 466.875 1822.34C467.201 1822.43 467.206 1822.44 467.531 1822.53C472.265 1823.85 473.657 1824.22 475.531 1824.66C476.628 1824.91 477.531 1825.07 478.188 1825.16C478.392 1825.18 478.503 1825.21 478.625 1825.22C481.976 1824.77 484.044 1824.38 492.688 1822.59C496.292 1821.85 498.637 1821.38 501.094 1820.94C511.293 1819.11 519.073 1818.59 526.219 1819.78C529.367 1820.31 531.831 1821.05 534.281 1822.12C534.929 1822.41 536.654 1823.21 536.594 1823.19C538.153 1823.9 539.043 1824.05 542.156 1823.81C544.322 1823.65 544.957 1823.44 546.625 1822.38C546.774 1822.28 546.777 1822.26 546.938 1822.16C551.186 1819.45 554.613 1818.31 560.656 1818.31C582.657 1818.31 609.095 1822.08 627.875 1828.34C631.056 1829.4 633.159 1832.26 633.406 1835.41C633.424 1835.63 633.315 1835.86 633.312 1836.09L799.281 1833.66L799.281 46.8438Z" fill="#fefdef" fill-rule="evenodd" opacity="1" stroke="none"/>
<path d="M560.656 1834.5C557.955 1834.5 557.44 1834.66 555.625 1835.81C555.472 1835.91 555.478 1835.93 555.312 1836.03C554.451 1836.58 553.635 1836.86 552.812 1837.28L590.719 1836.72C580.556 1835.32 570.142 1834.5 560.656 1834.5Z" fill="#fefdef" fill-rule="evenodd" opacity="1" stroke="none"/>
<path d="M515.094 1835.44C511.867 1835.63 508.201 1836.11 503.938 1836.88C502.152 1837.19 500.028 1837.62 497.688 1838.09L529.219 1837.62C528.688 1837.38 528.056 1837.09 527.781 1836.97C526.519 1836.42 525.355 1836.05 523.562 1835.75C521.109 1835.34 518.321 1835.24 515.094 1835.44Z" fill="#fefdef" fill-rule="evenodd" opacity="1" stroke="none"/>
<path d="M454.906 1836.03C454.778 1836.89 454.683 1837.87 454.438 1838.72L464.938 1838.56C464.182 1838.35 464.041 1838.36 463.188 1838.12C462.866 1838.04 462.883 1838.03 462.562 1837.94C458.821 1836.9 456.81 1836.43 454.906 1836.03Z" fill="#fefdef" fill-rule="evenodd" opacity="1" stroke="none"/>
<path d="M793.218 1837.47L1070.51 1976.65" fill="#fefdef" fill-rule="evenodd" opacity="1" stroke="none"/>
<path d="M793.224 22.3338L1070.5 161.509L793.224 22.3338Z" fill="#fefdef" fill-rule="evenodd" opacity="1" stroke="none"/>
<path d="M1073.93 161.52L1351.23 22.3393" fill="#fefdef" fill-rule="evenodd" opacity="1" stroke="none"/>
<path d="M1116.11 254.022C1111.1 254.022 1107.06 261.786 1107.06 271.389L1107.06 584.575C1107.06 594.179 1111.1 601.942 1116.11 601.942C1121.12 601.942 1125.2 594.179 1125.2 584.575L1125.2 271.389C1125.2 261.786 1121.12 254.022 1116.11 254.022Z" fill="#1f212b" fill-rule="evenodd" opacity="1" stroke="none"/>
<path d="M1116.11 636.745C1111.1 636.745 1107.06 644.542 1107.06 654.146L1107.06 758.552C1107.06 768.156 1111.1 775.92 1116.11 775.92C1121.12 775.919 1125.2 768.156 1125.2 758.552L1125.2 654.146C1125.2 644.542 1121.12 636.745 1116.11 636.745Z" fill="#1f212b" fill-rule="evenodd" opacity="1" stroke="none"/>
<path d="M575.497 1687.91C570.484 1687.91 566.405 1695.71 566.405 1705.31L566.405 1809.69C566.405 1819.29 570.484 1827.09 575.497 1827.09C580.51 1827.09 584.589 1819.29 584.589 1809.69L584.589 1705.31C584.589 1695.71 580.51 1687.91 575.497 1687.91Z" fill="#272932" fill-rule="evenodd" opacity="1" stroke="none"/>
<path d="M968.851 48.6622L970.678 48.6622L970.678 49.6258L968.851 49.6258L968.851 48.6622Z" fill="#1f212b" fill-rule="evenodd" opacity="1" stroke="none"/>
<path d="M699.702 58.7018L699.702 58.7018C703.24 58.7018 706.108 61.2597 706.108 64.4149L706.108 123.259C706.108 126.415 703.24 128.973 699.702 128.973L699.702 128.973C696.165 128.973 693.297 126.415 693.297 123.259L693.297 64.4149C693.297 61.2597 696.165 58.7018 699.702 58.7018Z" fill="#272932" fill-rule="evenodd" opacity="1" stroke="none"/>
<path d="M918.376 85.5589L918.376 85.5589C921.887 85.5589 924.733 88.097 924.733 91.2278L924.733 230.522C924.733 233.653 921.887 236.191 918.376 236.191L918.376 236.191C914.866 236.191 912.02 233.653 912.02 230.522L912.02 91.2278C912.02 88.097 914.866 85.5589 918.376 85.5589Z" fill="#1f212b" fill-rule="evenodd" opacity="1" stroke="none"/>
<path d="M798.137 39.984L798.137 39.984C803.949 39.984 808.661 44.905 808.661 50.9754L808.661 1826.88C808.661 1832.95 803.949 1837.87 798.137 1837.87L798.137 1837.87C792.324 1837.87 787.612 1832.95 787.612 1826.88L787.612 50.9754C787.612 44.905 792.324 39.984 798.137 39.984Z" fill="#272932" fill-rule="evenodd" opacity="1" stroke="none"/>
<path d="M950.745 49.0603L956.759 49.0603C957.175 49.0603 957.511 49.4153 957.511 49.8532L957.511 49.8532C957.511 50.2912 957.175 50.6462 956.759 50.6462L950.745 50.6462C950.33 50.6462 949.993 50.2912 949.993 49.8532L949.993 49.8532C949.993 49.4153 950.33 49.0603 950.745 49.0603Z" fill="#272932" fill-rule="evenodd" opacity="1" stroke="none"/>
<path d="M803.105 1819.36L1109.27 1895.31C1115.16 1896.77 1118.73 1902.66 1117.25 1908.47L1117.25 1908.47C1115.77 1914.28 1109.8 1917.8 1103.92 1916.34L797.75 1840.39C791.867 1838.93 788.296 1833.04 789.774 1827.23L789.774 1827.23C791.253 1821.42 797.221 1817.9 803.105 1819.36Z" fill="#272932" fill-rule="evenodd" opacity="1" stroke="none"/>
<path d="M733.026 1889.85L733.026 1889.85C733.413 1889.85 733.727 1890.18 733.727 1890.59L733.727 1893.55C733.727 1893.96 733.413 1894.29 733.026 1894.29L733.026 1894.29C732.639 1894.29 732.325 1893.96 732.325 1893.55L732.325 1890.59C732.325 1890.18 732.639 1889.85 733.026 1889.85Z" fill="#272932" fill-rule="evenodd" opacity="1" stroke="none"/>
<path d="M802.784 26.455L1118.61 81.5996C1124.85 82.6885 1129.68 91.0185 1129.39 100.205L1129.39 100.205C1129.11 109.392 1123.83 115.956 1117.59 114.867L801.76 59.7228C795.524 58.6339 790.698 50.3039 790.981 41.1173L790.981 41.1173C791.263 31.9306 796.548 25.3661 802.784 26.455Z" fill="#272932" fill-rule="evenodd" opacity="1" stroke="none"/>
<path d="M33.5444 1815.55C28.383 1815.55 24.1901 1821.08 24.1901 1827.88C24.1901 1834.67 28.383 1840.18 33.5444 1840.18L158.642 1840.18C160.16 1838.16 161.148 1836.68 163.031 1834.26C163.436 1833.75 163.429 1833.73 163.832 1833.22C168.363 1827.42 170.544 1824.52 172.898 1821.09C173.851 1819.7 175.117 1817.14 176.037 1815.55L33.5444 1815.55Z" fill="#272932" fill-rule="evenodd" opacity="1" stroke="none"/>
<path d="M239.461 1815.55C240.963 1818.86 242.317 1821.82 244.255 1826.23C244.538 1826.87 246.378 1831.12 246.75 1831.96C248.177 1835.19 249.366 1837.72 250.669 1840.58L806.194 1840.58C811.413 1840.58 815.653 1834.99 815.653 1828.08C815.653 1821.17 811.413 1815.55 806.194 1815.55L239.461 1815.55Z" fill="#272932" fill-rule="evenodd" opacity="1" stroke="none"/>
<path d="M35.8975 31.8776L35.8975 31.8776C43.8314 31.8776 50.263 38.6612 50.263 47.0293L50.263 1825.4C50.263 1833.77 43.8314 1840.56 35.8975 1840.56L35.8975 1840.56C27.9637 1840.56 21.5321 1833.77 21.5321 1825.4L21.5321 47.0293C21.5321 38.6612 27.9637 31.8776 35.8975 31.8776Z" fill="#272932" fill-rule="evenodd" opacity="1" stroke="none"/>
<path d="M37.3245 26.4091C28.6695 26.409 21.6593 34.6894 21.6593 44.8914C21.6593 55.0934 28.6695 63.3737 37.3245 63.3737L157.297 63.3737C156.716 62.3744 156.487 61.9057 155.887 60.8734C155.555 60.3026 154.207 57.954 153.645 56.9877C145.174 42.4266 141.015 34.9455 136.281 26.4091L37.3245 26.4091Z" fill="#272932" fill-rule="evenodd" opacity="1" stroke="none"/>
<path d="M306.084 26.4091C305.671 28.7546 305.166 31.1764 304.559 33.8087C303.932 36.5281 303.261 39.1792 302.272 42.9654C302.111 43.582 300.379 50.2438 300.08 51.4464C299.07 55.5052 297.929 59.4275 296.681 63.3737L802.746 63.3737C811.329 63.3737 818.28 55.0934 818.28 44.8914C818.28 34.6894 811.329 26.4091 802.746 26.4091L306.084 26.4091Z" fill="#272932" fill-rule="evenodd" opacity="1" stroke="none"/>
<path d="M150.681 1820.31L198.823 1757.87C202.504 1753.1 208.676 1752.85 212.607 1757.32L212.607 1757.32C216.539 1761.79 216.742 1769.29 213.06 1774.06L164.919 1836.5C161.237 1841.27 155.066 1841.52 151.134 1837.05L151.134 1837.05C147.203 1832.58 147 1825.08 150.681 1820.31Z" fill="#272932" fill-rule="evenodd" opacity="1" stroke="none"/>
<path d="M218.523 1760.16L258.83 1824.87C262.019 1829.99 259.775 1836.36 253.818 1839.1L253.818 1839.1C247.861 1841.84 240.447 1839.91 237.258 1834.79L196.951 1770.09C193.763 1764.97 196.007 1758.6 201.964 1755.86L201.964 1755.86C207.921 1753.12 215.335 1755.04 218.523 1760.16Z" fill="#272932" fill-rule="evenodd" opacity="1" stroke="none"/>
<path d="M145.854 34.4478L231.149 194.138C235.282 201.876 232.685 211.682 225.349 216.041L225.349 216.041C218.013 220.4 208.716 217.661 204.583 209.923L119.288 50.2329C115.156 42.4955 117.752 32.6895 125.088 28.3306L125.088 28.3306C132.424 23.9716 141.721 26.7104 145.854 34.4478Z" fill="#272932" fill-rule="evenodd" opacity="1" stroke="none"/>
<path d="M309.369 48.8135L232.593 208.709C228.873 216.456 219.683 219.669 212.067 215.885L212.067 215.885C204.451 212.101 201.292 202.753 205.012 195.005L281.788 35.1103C285.508 27.363 294.698 24.1501 302.314 27.9342L302.314 27.9342C309.93 31.7182 313.089 41.0662 309.369 48.8135Z" fill="#272932" fill-rule="evenodd" opacity="1" stroke="none"/>
<path d="M306.944 26.9047C305.848 26.8007 304.652 26.1579 303.542 26.2846C301.119 26.561 298.725 26.6074 296.288 27.0098C295.722 27.1033 292.784 28.9218 293.391 29.5612C294.199 30.4115 297.879 30.1355 299.044 30.2459C304.615 30.7742 310.09 31.6651 315.66 32.1933" fill="#272932" fill-rule="evenodd" opacity="1" stroke="none"/>
<path d="M309.246 26.3791C309.536 26.4067 308.632 26.321 308.476 26.3062C308.053 26.2661 307.57 26.1465 307.147 26.1802C305.57 26.306 303.92 26.1934 302.341 26.3194C299.436 26.5511 296.553 26.5385 293.714 27.435C291.922 28.0006 290.878 29.7475 289.228 30.4307" fill="#272932" fill-rule="evenodd" opacity="1" stroke="none"/>
<path d="M296.126 26.415C297.187 25.9004 298.928 26.3001 300.078 26.1931C303.276 25.8953 306.912 25.5959 310.072 26.4118C311.03 26.6592 311.989 27.2018 312.956 27.3631" fill="#272932" fill-rule="evenodd" opacity="1" stroke="none"/>
<path d="M300.164 27.598C300.528 26.6947 298.105 26.116 297.535 26.5522C297.022 26.9455 298.222 27.5582 298.241 28.0408" fill="#272932" fill-rule="evenodd" opacity="1" stroke="none"/>
<path d="M1061.59 1809.93C1059.74 1806.93 1056.09 1805.92 1053.02 1807.41C1042.93 1797.63 1025.21 1798.59 1014.35 1805.94C1003.49 1813.3 995.3 1829.9 999.788 1843.64C997.72 1845.93 997.309 1849.51 998.992 1852.33C1000.69 1855.08 1003.98 1856.16 1006.89 1855.14C1010.32 1858.49 1014.69 1860.67 1019.37 1861.69C1019.83 1861.79 1020.3 1861.89 1020.77 1861.92C1020.84 1861.94 1020.97 1861.97 1021.1 1862L1046.36 1867.52C1047.48 1867.76 1048.53 1867.06 1048.77 1865.88C1049.02 1864.71 1048.35 1863.63 1047.23 1863.38L1036.22 1860.98C1039.67 1860 1042.87 1858.54 1045.67 1856.7C1056.54 1849.34 1064.64 1832.8 1060.27 1819.16C1061.37 1818.17 1062.22 1816.77 1062.54 1815.26C1062.93 1813.4 1062.57 1811.51 1061.59 1809.93ZM1054.87 1827.95C1054.85 1828.03 1044.21 1853.14 1016.11 1853.63C1014.26 1853.66 1012.91 1855 1012.53 1856.46C1011.5 1855.66 1010.49 1854.78 1009.62 1853.87C1010.27 1852.82 1010.76 1851.56 1010.97 1850.22C1011.11 1848.94 1010.4 1847.66 1009.23 1847.48C1008.13 1847.32 1007.04 1848.15 1006.88 1849.51C1006.75 1850.47 1006.28 1851.32 1005.55 1851.76C1004.22 1852.69 1002.56 1852.2 1001.76 1850.65C1000.97 1849.09 1001.38 1847.15 1002.72 1846.22L1002.8 1846.17C1003.63 1845.58 1004.03 1844.38 1003.63 1843.27C999.577 1830.93 1005.95 1813.16 1017.27 1805.26C1028.64 1797.45 1045.07 1799.31 1052.45 1809.32C1053.12 1810.18 1054.2 1810.42 1055.03 1809.83L1055.69 1809.37C1057.03 1808.44 1058.69 1808.93 1059.48 1810.48C1059.88 1811.26 1059.98 1812.12 1059.81 1812.89C1059.65 1813.67 1059.2 1814.44 1058.55 1814.83L1057.88 1815.3C1057.05 1815.88 1056.65 1817.08 1057.05 1818.19C1057.76 1820.46 1058.15 1822.89 1058.25 1825.4C1057.05 1825.37 1055.74 1826.23 1054.87 1827.95ZM1055.7 1869.56C1055.8 1869.64 1055.91 1869.66 1056 1869.73C1056.12 1869.76 1056.21 1869.83 1056.32 1869.85C1056.44 1869.88 1056.55 1869.9 1056.67 1869.88C1056.78 1869.9 1056.91 1869.88 1057.04 1869.85C1057.16 1869.83 1057.29 1869.81 1057.36 1869.77C1057.48 1869.75 1057.55 1869.71 1057.63 1869.63C1058.05 1869.41 1058.32 1869.11 1058.43 1868.73C1058.46 1868.63 1058.49 1868.53 1058.46 1868.43C1058.49 1868.33 1058.46 1868.22 1058.43 1868.11C1058.4 1868.01 1058.36 1867.95 1058.33 1867.84C1058.31 1867.73 1058.26 1867.67 1058.17 1867.6C1057.71 1866.94 1056.6 1866.69 1055.83 1867.09C1055.76 1867.13 1055.62 1867.2 1055.55 1867.23C1055.47 1867.32 1055.4 1867.35 1055.31 1867.44C1055.23 1867.52 1055.2 1867.62 1055.12 1867.7C1055.09 1867.8 1055.01 1867.88 1054.98 1867.98C1054.87 1868.36 1054.92 1868.78 1055.18 1869.09C1055.23 1869.15 1055.31 1869.27 1055.35 1869.33C1055.56 1869.43 1055.66 1869.5 1055.7 1869.56Z" fill="#8d8c81" fill-rule="evenodd" opacity="1" stroke="none"/>
<g fill="#1f212b" opacity="1" stroke="#8d8c81" stroke-linecap="butt" stroke-linejoin="round" stroke-width="3.73225">
<path clip-path="url(#TextBounds)" d="M870.862 1682.07L875.132 1683.34L875.951 1703.82L887.733 1687.06L891.959 1688.31L885.448 1710.32L882.616 1709.49L886.459 1696.5C886.592 1696.05 886.822 1695.3 887.149 1694.27C887.476 1693.24 887.816 1692.13 888.167 1690.94L876.398 1707.65L873.446 1706.77L872.615 1686.34L872.415 1687.01C872.256 1687.55 872.025 1688.38 871.724 1689.49C871.422 1690.6 871.195 1691.42 871.041 1691.94L867.198 1704.93L864.351 1704.08L870.862 1682.07Z" fill-rule="evenodd"/>
<path clip-path="url(#TextBounds)" d="M892.959 1707.9C892.729 1708.68 892.831 1709.38 893.268 1710C893.704 1710.62 894.312 1711.04 895.091 1711.27C896.04 1711.55 897.024 1711.6 898.043 1711.43C899.757 1711.14 900.859 1710.17 901.35 1708.51L901.993 1706.34C901.601 1706.45 901.125 1706.5 900.564 1706.49C900.003 1706.47 899.464 1706.42 898.947 1706.33L897.252 1706.06C896.234 1705.9 895.44 1705.89 894.867 1706.02C893.899 1706.25 893.263 1706.87 892.959 1707.9ZM901.105 1704.38C901.748 1704.48 902.239 1704.35 902.579 1703.97C902.77 1703.76 902.932 1703.44 903.065 1702.99C903.337 1702.07 903.207 1701.31 902.675 1700.7C902.143 1700.09 901.268 1699.61 900.05 1699.24C898.641 1698.83 897.53 1698.91 896.716 1699.5C896.262 1699.82 895.863 1700.38 895.518 1701.18L893.001 1700.43C893.636 1698.47 894.684 1697.29 896.147 1696.88C897.61 1696.47 899.155 1696.5 900.783 1696.99C902.671 1697.54 904.098 1698.36 905.064 1699.42C906.02 1700.49 906.273 1701.78 905.824 1703.3L903.09 1712.54C903.007 1712.82 902.998 1713.07 903.062 1713.27C903.127 1713.47 903.344 1713.63 903.714 1713.74C903.834 1713.77 903.971 1713.81 904.125 1713.84C904.279 1713.87 904.446 1713.89 904.624 1713.91L904.035 1715.9C903.58 1715.9 903.238 1715.88 903.009 1715.84C902.781 1715.81 902.477 1715.74 902.097 1715.62C901.168 1715.35 900.591 1714.82 900.367 1714.04C900.251 1713.62 900.242 1713.08 900.341 1712.42C899.579 1712.97 898.605 1713.36 897.42 1713.59C896.234 1713.81 895.022 1713.74 893.784 1713.38C892.295 1712.94 891.213 1712.12 890.536 1710.94C889.86 1709.76 889.723 1708.49 890.124 1707.13C890.565 1705.64 891.37 1704.62 892.542 1704.08C893.713 1703.54 895.081 1703.39 896.645 1703.65L901.105 1704.38Z" fill-rule="evenodd"/>
<path clip-path="url(#TextBounds)" d="M910.72 1709.28C910.212 1711 910.151 1712.54 910.537 1713.92C910.924 1715.29 911.921 1716.22 913.529 1716.69C914.778 1717.06 915.963 1716.83 917.085 1715.99C918.207 1715.16 919.064 1713.73 919.658 1711.73C920.258 1709.7 920.288 1708.07 919.747 1706.86C919.206 1705.64 918.326 1704.85 917.107 1704.49C915.749 1704.08 914.494 1704.28 913.342 1705.07C912.191 1705.86 911.317 1707.26 910.72 1709.28ZM917.294 1701.98C918.522 1702.35 919.474 1702.91 920.15 1703.68C920.54 1704.12 920.93 1704.8 921.317 1705.73L923.715 1697.63L926.307 1698.39L919.774 1720.48L917.347 1719.76L918.008 1717.53C917.086 1718.33 916.13 1718.82 915.141 1719.01C914.152 1719.19 913.103 1719.12 911.995 1718.8C910.207 1718.27 908.881 1717.06 908.017 1715.17C907.153 1713.28 907.09 1711.08 907.829 1708.59C908.52 1706.25 909.716 1704.4 911.417 1703.04C913.117 1701.68 915.076 1701.33 917.294 1701.98Z" fill-rule="evenodd"/>
<path clip-path="url(#TextBounds)" d="M935.296 1707.23C936.434 1707.56 937.459 1708.16 938.37 1709.01C939.281 1709.86 939.89 1710.79 940.198 1711.81C940.498 1712.77 940.579 1713.82 940.439 1714.96C940.381 1715.74 940.112 1716.95 939.633 1718.56L927.871 1715.08C927.44 1716.73 927.438 1718.15 927.866 1719.34C928.294 1720.54 929.262 1721.36 930.771 1721.81C932.179 1722.22 933.44 1722.09 934.554 1721.41C935.193 1721.01 935.717 1720.49 936.127 1719.84L938.779 1720.62C938.535 1721.19 938.108 1721.78 937.499 1722.39C936.891 1723 936.274 1723.46 935.648 1723.77C934.593 1724.33 933.419 1724.57 932.128 1724.49C931.431 1724.46 930.674 1724.32 929.855 1724.08C927.857 1723.49 926.379 1722.26 925.42 1720.4C924.462 1718.53 924.369 1716.29 925.143 1713.67C925.906 1711.1 927.224 1709.21 929.098 1708.02C930.972 1706.82 933.038 1706.56 935.296 1707.23ZM937.495 1715.6C937.731 1714.4 937.752 1713.39 937.56 1712.57C937.205 1711.06 936.163 1710.04 934.435 1709.53C933.196 1709.16 932.025 1709.3 930.922 1709.95C929.818 1710.6 929.038 1711.6 928.58 1712.96L937.495 1715.6Z" fill-rule="evenodd"/>
<path clip-path="url(#TextBounds)" d="M957.675 1707.75L956.529 1726.89L966.8 1710.45L970.036 1711.41L969.714 1730.79L979.161 1714.11L982.427 1715.07L970.133 1735.37L967.002 1734.45L967.321 1714.7L956.813 1731.43L953.681 1730.51L954.439 1706.8L957.675 1707.75Z" fill-rule="evenodd"/>
<path clip-path="url(#TextBounds)" d="M983.038 1721.82L985.78 1722.63L981.056 1738.61L978.314 1737.79L983.038 1721.82ZM984.825 1715.78L987.567 1716.59L986.662 1719.65L983.92 1718.84L984.825 1715.78Z" fill-rule="evenodd"/>
<path clip-path="url(#TextBounds)" d="M991.743 1719.44L994.47 1720.25L993.144 1724.73L995.706 1725.49L995.055 1727.69L992.493 1726.93L989.395 1737.41C989.229 1737.97 989.308 1738.4 989.632 1738.7C989.809 1738.87 990.142 1739.03 990.632 1739.17C990.762 1739.21 990.902 1739.25 991.054 1739.29C991.205 1739.33 991.383 1739.37 991.589 1739.41L990.96 1741.53C990.623 1741.53 990.282 1741.5 989.936 1741.44C989.589 1741.38 989.221 1741.3 988.832 1741.18C987.573 1740.81 986.814 1740.24 986.555 1739.46C986.296 1738.68 986.319 1737.78 986.624 1736.75L989.766 1726.13L987.593 1725.48L988.245 1723.28L990.417 1723.92L991.743 1719.44Z" fill-rule="evenodd"/>
<path clip-path="url(#TextBounds)" d="M1000.19 1720.25L1002.89 1721.05L1000.46 1729.26C1001.34 1728.64 1002.08 1728.24 1002.69 1728.06C1003.72 1727.75 1004.89 1727.78 1006.19 1728.17C1008.52 1728.85 1009.85 1730.13 1010.2 1732.01C1010.39 1733.03 1010.25 1734.33 1009.78 1735.91L1006.74 1746.2L1003.97 1745.38L1006.96 1735.27C1007.31 1734.09 1007.41 1733.18 1007.27 1732.54C1007.04 1731.52 1006.26 1730.81 1004.91 1730.41C1003.79 1730.08 1002.66 1730.16 1001.52 1730.66C1000.39 1731.16 999.503 1732.48 998.871 1734.62L996.354 1743.13L993.657 1742.33L1000.19 1720.25Z" fill-rule="evenodd"/>
<path clip-path="url(#TextBounds)" d="M848.864 1713.94L849.643 1734.56L861.435 1717.66L864.776 1718.65L850.235 1738.28L847.073 1737.35L845.568 1712.97L848.864 1713.94Z" fill-rule="evenodd"/>
<path clip-path="url(#TextBounds)" d="M864.908 1725.25L867.65 1726.07L862.925 1742.04L860.183 1741.23L864.908 1725.25ZM866.694 1719.22L869.436 1720.03L868.532 1723.08L865.79 1722.27L866.694 1719.22Z" fill-rule="evenodd"/>
<path clip-path="url(#TextBounds)" d="M873.612 1722.88L876.339 1723.68L875.014 1728.16L877.576 1728.92L876.925 1731.12L874.362 1730.37L871.264 1740.84C871.099 1741.4 871.178 1741.83 871.501 1742.13C871.679 1742.3 872.012 1742.46 872.501 1742.61C872.631 1742.64 872.772 1742.68 872.923 1742.72C873.074 1742.76 873.253 1742.8 873.459 1742.84L872.829 1744.97C872.493 1744.97 872.152 1744.94 871.805 1744.88C871.459 1744.82 871.091 1744.73 870.701 1744.61C869.443 1744.24 868.684 1743.67 868.425 1742.89C868.166 1742.11 868.189 1741.21 868.493 1740.18L871.635 1729.56L869.463 1728.92L870.114 1726.71L872.287 1727.36L873.612 1722.88Z" fill-rule="evenodd"/>
<path clip-path="url(#TextBounds)" d="M878.857 1742.11C878.627 1742.89 878.73 1743.58 879.166 1744.2C879.602 1744.82 880.21 1745.24 880.989 1745.47C881.938 1745.76 882.922 1745.81 883.941 1745.63C885.655 1745.35 886.757 1744.37 887.248 1742.71L887.891 1740.54C887.499 1740.65 887.023 1740.7 886.462 1740.69C885.901 1740.68 885.362 1740.63 884.845 1740.54L883.15 1740.26C882.132 1740.1 881.338 1740.09 880.766 1740.23C879.798 1740.45 879.161 1741.08 878.857 1742.11ZM887.003 1738.59C887.646 1738.69 888.137 1738.55 888.477 1738.17C888.668 1737.97 888.83 1737.64 888.963 1737.19C889.235 1736.27 889.105 1735.51 888.573 1734.9C888.041 1734.29 887.166 1733.81 885.948 1733.45C884.539 1733.03 883.428 1733.12 882.614 1733.7C882.16 1734.02 881.761 1734.58 881.416 1735.38L878.899 1734.64C879.534 1732.68 880.582 1731.49 882.045 1731.08C883.508 1730.67 885.053 1730.71 886.681 1731.19C888.569 1731.75 889.996 1732.56 890.962 1733.63C891.918 1734.69 892.171 1735.99 891.722 1737.5L888.988 1746.75C888.905 1747.03 888.896 1747.27 888.96 1747.47C889.025 1747.68 889.242 1747.83 889.612 1747.94C889.732 1747.98 889.869 1748.01 890.023 1748.04C890.177 1748.07 890.344 1748.1 890.522 1748.12L889.933 1750.11C889.478 1750.1 889.136 1750.08 888.908 1750.05C888.679 1750.01 888.375 1749.94 887.995 1749.83C887.066 1749.55 886.49 1749.02 886.265 1748.24C886.149 1747.83 886.14 1747.29 886.239 1746.62C885.477 1747.18 884.503 1747.57 883.318 1747.79C882.132 1748.02 880.92 1747.95 879.682 1747.58C878.194 1747.14 877.111 1746.33 876.435 1745.15C875.758 1743.96 875.621 1742.69 876.023 1741.33C876.463 1739.84 877.269 1738.83 878.44 1738.28C879.611 1737.74 880.979 1737.6 882.543 1737.85L887.003 1738.59Z" fill-rule="evenodd"/>
<path clip-path="url(#TextBounds)" d="M897.339 1734.77L900.006 1735.56L899.332 1737.83C900.205 1737.23 900.954 1736.83 901.58 1736.62C902.649 1736.28 903.748 1736.27 904.877 1736.61C906.156 1736.98 907.091 1737.6 907.684 1738.46C908.017 1738.95 908.26 1739.6 908.413 1740.4C909.267 1739.72 910.159 1739.29 911.091 1739.12C912.023 1738.94 912.993 1739.01 914.002 1739.3C916.159 1739.94 917.397 1741.16 917.715 1742.94C917.887 1743.91 917.763 1745.1 917.343 1746.52L914.183 1757.2L911.381 1756.37L914.679 1745.22C914.995 1744.15 914.945 1743.34 914.529 1742.78C914.112 1742.23 913.52 1741.83 912.75 1741.61C911.692 1741.29 910.675 1741.38 909.701 1741.86C908.727 1742.34 907.995 1743.42 907.505 1745.07L904.744 1754.41L902.002 1753.6L905.1 1743.12C905.422 1742.03 905.527 1741.2 905.415 1740.63C905.227 1739.76 904.574 1739.15 903.455 1738.82C902.436 1738.52 901.393 1738.64 900.325 1739.19C899.258 1739.73 898.418 1741.03 897.807 1743.1L895.289 1751.61L892.592 1750.81L897.339 1734.77Z" fill-rule="evenodd"/>
<path clip-path="url(#TextBounds)" d="M922.878 1742.4L925.62 1743.21L920.895 1759.19L918.154 1758.37L922.878 1742.4ZM924.664 1736.36L927.406 1737.18L926.502 1740.23L923.76 1739.42L924.664 1736.36Z" fill-rule="evenodd"/>
<path clip-path="url(#TextBounds)" d="M929.718 1744.34L932.28 1745.1L931.606 1747.38C932.643 1746.67 933.647 1746.23 934.617 1746.07C935.587 1745.91 936.591 1745.99 937.63 1746.29C939.908 1746.97 941.211 1748.22 941.54 1750.04C941.723 1751.04 941.575 1752.35 941.096 1753.97L938.051 1764.26L935.309 1763.45L938.301 1753.34C938.591 1752.36 938.679 1751.52 938.567 1750.84C938.383 1749.7 937.661 1748.94 936.403 1748.57C935.764 1748.38 935.22 1748.29 934.772 1748.3C933.968 1748.3 933.189 1748.55 932.434 1749.04C931.828 1749.44 931.374 1749.9 931.072 1750.42C930.771 1750.95 930.465 1751.73 930.154 1752.78L927.668 1761.19L924.971 1760.39L929.718 1744.34Z" fill-rule="evenodd"/>
<path clip-path="url(#TextBounds)" d="M966.884 1748.2C969.671 1749.03 971.617 1750.4 972.721 1752.32C973.825 1754.25 974.185 1756.17 973.803 1758.09L970.896 1757.23C970.986 1755.71 970.661 1754.39 969.923 1753.27C969.184 1752.15 967.926 1751.33 966.148 1750.8C963.98 1750.16 962.004 1750.41 960.22 1751.53C958.436 1752.66 957.079 1754.8 956.148 1757.95C955.386 1760.52 955.369 1762.79 956.099 1764.75C956.828 1766.71 958.386 1768.04 960.774 1768.75C962.971 1769.4 964.894 1769.05 966.542 1767.7C967.414 1766.99 968.215 1765.96 968.943 1764.6L971.849 1765.46C970.904 1767.7 969.47 1769.39 967.548 1770.53C965.242 1771.9 962.605 1772.14 959.638 1771.27C957.081 1770.51 955.163 1769.1 953.883 1767.04C952.201 1764.31 951.992 1760.81 953.257 1756.54C954.217 1753.29 955.864 1750.88 958.196 1749.31C960.722 1747.61 963.618 1747.24 966.884 1748.2Z" fill-rule="evenodd"/>
<path clip-path="url(#TextBounds)" d="M987.571 1754.89L990.193 1755.67L987.831 1763.65C988.648 1763.06 989.525 1762.68 990.464 1762.52C991.403 1762.35 992.352 1762.42 993.311 1762.7C995.308 1763.29 996.726 1764.46 997.563 1766.2C998.401 1767.94 998.423 1770.15 997.632 1772.82C996.881 1775.36 995.643 1777.29 993.918 1778.6C992.193 1779.92 990.242 1780.25 988.064 1779.61C986.846 1779.25 985.904 1778.65 985.239 1777.81C984.843 1777.31 984.474 1776.6 984.132 1775.66L983.525 1777.71L981.038 1776.98L987.571 1754.89ZM988.604 1777.18C990.063 1777.61 991.325 1777.35 992.392 1776.41C993.459 1775.46 994.273 1774.04 994.835 1772.14C995.334 1770.46 995.386 1768.95 994.989 1767.63C994.593 1766.3 993.691 1765.43 992.282 1765.02C991.054 1764.65 989.843 1764.79 988.65 1765.43C987.457 1766.06 986.552 1767.42 985.935 1769.51C985.489 1771.02 985.316 1772.3 985.418 1773.35C985.604 1775.33 986.666 1776.6 988.604 1777.18Z" fill-rule="evenodd"/>
<path clip-path="url(#TextBounds)" d="M1013.08 1769L1016.07 1769.89C1015.38 1770.8 1013.84 1772.9 1011.45 1776.18C1009.66 1778.65 1008.17 1780.65 1007 1782.2C1004.23 1785.83 1002.39 1788 1001.49 1788.71C1000.58 1789.42 999.35 1789.55 997.791 1789.09C997.412 1788.97 997.124 1788.87 996.928 1788.78C996.732 1788.69 996.496 1788.56 996.22 1788.39L996.947 1785.93C997.378 1786.2 997.694 1786.38 997.895 1786.48C998.096 1786.57 998.276 1786.64 998.436 1786.69C998.936 1786.83 999.327 1786.86 999.611 1786.76C999.894 1786.67 1000.15 1786.52 1000.38 1786.33C1000.46 1786.27 1000.76 1785.91 1001.28 1785.26C1001.81 1784.62 1002.2 1784.13 1002.45 1783.81L1001.4 1765.55L1004.45 1766.45L1004.89 1780.79L1013.08 1769Z" fill-rule="evenodd"/>
<path clip-path="url(#TextBounds)" d="M872.902 1759.43L872.126 1762.05L864.71 1759.86L858.975 1779.25L855.948 1778.35L861.683 1758.96L854.266 1756.77L855.042 1754.15L872.902 1759.43Z" fill-rule="evenodd"/>
<path clip-path="url(#TextBounds)" d="M875.292 1760.05L877.989 1760.85L875.56 1769.06C876.438 1768.44 877.181 1768.04 877.788 1767.86C878.825 1767.55 879.993 1767.59 881.292 1767.97C883.619 1768.66 884.957 1769.94 885.304 1771.81C885.491 1772.84 885.351 1774.14 884.884 1775.72L881.839 1786.01L879.067 1785.19L882.059 1775.08C882.407 1773.9 882.513 1772.99 882.376 1772.35C882.147 1771.33 881.358 1770.61 880.009 1770.22C878.89 1769.89 877.763 1769.97 876.626 1770.47C875.49 1770.97 874.605 1772.29 873.973 1774.43L871.456 1782.94L868.759 1782.14L875.292 1760.05Z" fill-rule="evenodd"/>
<path clip-path="url(#TextBounds)" d="M897.36 1772.76C898.499 1773.09 899.524 1773.69 900.434 1774.54C901.345 1775.39 901.955 1776.32 902.263 1777.34C902.563 1778.31 902.643 1779.36 902.504 1780.49C902.445 1781.27 902.176 1782.48 901.698 1784.09L889.936 1780.62C889.504 1782.26 889.502 1783.68 889.931 1784.87C890.359 1786.07 891.327 1786.89 892.835 1787.34C894.244 1787.76 895.505 1787.62 896.619 1786.94C897.258 1786.55 897.782 1786.02 898.191 1785.37L900.844 1786.16C900.599 1786.72 900.173 1787.31 899.564 1787.92C898.955 1788.53 898.338 1788.99 897.713 1789.3C896.657 1789.86 895.484 1790.1 894.192 1790.02C893.496 1789.99 892.738 1789.85 891.919 1789.61C889.921 1789.02 888.443 1787.79 887.485 1785.93C886.526 1784.06 886.434 1781.82 887.208 1779.21C887.97 1776.63 889.289 1774.74 891.163 1773.55C893.037 1772.35 895.103 1772.09 897.36 1772.76ZM899.56 1781.13C899.795 1779.93 899.817 1778.92 899.624 1778.1C899.269 1776.59 898.228 1775.57 896.5 1775.06C895.261 1774.7 894.09 1774.83 892.986 1775.48C891.883 1776.13 891.102 1777.13 890.645 1778.49L899.56 1781.13Z" fill-rule="evenodd"/>
<path clip-path="url(#TextBounds)" d="M927.738 1775C930.525 1775.82 932.47 1777.2 933.574 1779.12C934.678 1781.04 935.039 1782.96 934.656 1784.88L931.749 1784.02C931.839 1782.51 931.515 1781.19 930.776 1780.07C930.038 1778.95 928.779 1778.12 927.001 1777.6C924.834 1776.96 922.858 1777.2 921.074 1778.33C919.29 1779.46 917.932 1781.6 917.002 1784.74C916.239 1787.32 916.223 1789.59 916.952 1791.55C917.682 1793.51 919.24 1794.84 921.627 1795.55C923.825 1796.2 925.748 1795.85 927.396 1794.5C928.268 1793.79 929.068 1792.76 929.796 1791.4L932.703 1792.26C931.758 1794.5 930.324 1796.19 928.402 1797.32C926.095 1798.69 923.459 1798.94 920.492 1798.06C917.935 1797.31 916.016 1795.9 914.736 1793.83C913.055 1791.11 912.846 1787.61 914.111 1783.33C915.071 1780.09 916.717 1777.68 919.05 1776.11C921.576 1774.4 924.472 1774.03 927.738 1775Z" fill-rule="evenodd"/>
<path clip-path="url(#TextBounds)" d="M938.398 1785.29L940.96 1786.05L940.14 1788.82C940.509 1788.34 941.218 1787.84 942.266 1787.3C943.314 1786.77 944.373 1786.66 945.441 1786.98C945.491 1787 945.575 1787.03 945.692 1787.07C945.809 1787.12 946.007 1787.2 946.288 1787.31L945.446 1790.16C945.295 1790.08 945.154 1790.02 945.022 1789.97C944.89 1789.92 944.744 1789.87 944.584 1789.82C943.226 1789.42 942.053 1789.55 941.065 1790.21C940.077 1790.87 939.415 1791.76 939.078 1792.9L936.348 1802.13L933.651 1801.34L938.398 1785.29Z" fill-rule="evenodd"/>
<path clip-path="url(#TextBounds)" d="M955.33 1789.91C956.469 1790.24 957.494 1790.84 958.404 1791.69C959.315 1792.54 959.925 1793.47 960.233 1794.48C960.533 1795.45 960.613 1796.5 960.474 1797.64C960.415 1798.42 960.146 1799.62 959.668 1801.24L947.906 1797.76C947.474 1799.41 947.472 1800.83 947.901 1802.02C948.329 1803.22 949.297 1804.04 950.805 1804.49C952.214 1804.9 953.475 1804.77 954.589 1804.09C955.228 1803.69 955.752 1803.17 956.162 1802.52L958.814 1803.3C958.569 1803.87 958.143 1804.46 957.534 1805.07C956.925 1805.68 956.308 1806.14 955.683 1806.45C954.627 1807.01 953.454 1807.25 952.163 1807.17C951.466 1807.14 950.708 1807 949.889 1806.76C947.891 1806.17 946.413 1804.94 945.455 1803.08C944.496 1801.21 944.404 1798.97 945.178 1796.35C945.94 1793.78 947.259 1791.89 949.133 1790.7C951.007 1789.5 953.073 1789.24 955.33 1789.91ZM957.53 1798.28C957.765 1797.08 957.787 1796.07 957.594 1795.25C957.239 1793.73 956.198 1792.72 954.47 1792.21C953.231 1791.84 952.06 1791.98 950.956 1792.63C949.853 1793.27 949.072 1794.28 948.615 1795.64L957.53 1798.28Z" fill-rule="evenodd"/>
<path clip-path="url(#TextBounds)" d="M966.851 1793.7L966.197 1807.26L973.069 1795.54L976.096 1796.44L975.523 1809.94L982.523 1798.34L985.22 1799.14L975.814 1813.81L973.012 1812.98L973.42 1799.59L966.584 1811.08L963.782 1810.25L963.899 1792.83L966.851 1793.7Z" fill-rule="evenodd"/>
</g>
<g fill="#1f212b" opacity="1" stroke="none">
<path clip-path="url(#TextBounds_2)" d="M809.323 1848.92L809.323 1850.97L803.522 1850.97L803.522 1866.13L801.155 1866.13L801.155 1850.97L795.354 1850.97L795.354 1848.92L809.323 1848.92Z" fill-rule="evenodd"/>
<path clip-path="url(#TextBounds_2)" d="M801.741 1880.9C802.631 1880.9 803.494 1881.11 804.33 1881.53C805.166 1881.95 805.803 1882.49 806.241 1883.15C806.662 1883.78 806.944 1884.52 807.084 1885.37C807.209 1885.94 807.272 1886.87 807.272 1888.13L798.073 1888.13C798.112 1889.41 798.412 1890.43 798.975 1891.2C799.537 1891.97 800.409 1892.35 801.588 1892.35C802.69 1892.35 803.569 1891.99 804.225 1891.26C804.6 1890.84 804.866 1890.35 805.022 1889.8L807.096 1889.8C807.041 1890.26 806.86 1890.77 806.551 1891.34C806.243 1891.9 805.897 1892.37 805.514 1892.73C804.873 1893.35 804.08 1893.77 803.135 1893.99C802.627 1894.12 802.053 1894.18 801.412 1894.18C799.85 1894.18 798.526 1893.61 797.44 1892.47C796.354 1891.34 795.811 1889.75 795.811 1887.7C795.811 1885.68 796.358 1884.05 797.452 1882.79C798.545 1881.53 799.975 1880.9 801.741 1880.9ZM805.104 1886.46C805.018 1885.54 804.819 1884.81 804.506 1884.26C803.928 1883.25 802.963 1882.74 801.612 1882.74C800.643 1882.74 799.83 1883.09 799.174 1883.79C798.518 1884.49 798.17 1885.38 798.131 1886.46L805.104 1886.46Z" fill-rule="evenodd"/>
<path clip-path="url(#TextBounds_2)" d="M795.319 1908.78L798.049 1908.78L800.932 1913.2L803.85 1908.78L806.416 1908.84L802.186 1914.9L806.604 1921.33L803.909 1921.33L800.791 1916.62L797.768 1921.33L795.096 1921.33L799.514 1914.9L795.319 1908.78Z" fill-rule="evenodd"/>
<path clip-path="url(#TextBounds_2)" d="M796.936 1932.88L799.069 1932.88L799.069 1936.38L801.073 1936.38L801.073 1938.11L799.069 1938.11L799.069 1946.3C799.069 1946.73 799.217 1947.03 799.514 1947.18C799.678 1947.26 799.952 1947.3 800.334 1947.3C800.436 1947.3 800.545 1947.3 800.662 1947.3C800.78 1947.29 800.916 1947.28 801.073 1947.27L801.073 1948.93C800.83 1949 800.578 1949.05 800.317 1949.09C800.055 1949.12 799.772 1949.13 799.467 1949.13C798.483 1949.13 797.815 1948.88 797.463 1948.38C797.112 1947.87 796.936 1947.22 796.936 1946.41L796.936 1938.11L795.237 1938.11L795.237 1936.38L796.936 1936.38L796.936 1932.88Z" fill-rule="evenodd"/>
</g>
<g fill="#1f212b" opacity="1" stroke="none">
<path clip-path="url(#TextBounds_3)" d="M787.455 1852.33L787.455 1854.38L781.654 1854.38L781.654 1869.54L779.287 1869.54L779.287 1854.38L773.486 1854.38L773.486 1852.33L787.455 1852.33Z" fill-rule="evenodd"/>
<path clip-path="url(#TextBounds_3)" d="M779.873 1884.31C780.763 1884.31 781.626 1884.52 782.462 1884.94C783.298 1885.35 783.935 1885.9 784.373 1886.56C784.794 1887.19 785.076 1887.93 785.216 1888.77C785.341 1889.35 785.404 1890.27 785.404 1891.54L776.205 1891.54C776.244 1892.81 776.544 1893.83 777.107 1894.6C777.669 1895.37 778.541 1895.76 779.72 1895.76C780.822 1895.76 781.701 1895.4 782.357 1894.67C782.732 1894.25 782.998 1893.76 783.154 1893.2L785.228 1893.2C785.173 1893.66 784.992 1894.18 784.683 1894.74C784.375 1895.31 784.029 1895.77 783.646 1896.13C783.005 1896.76 782.212 1897.18 781.267 1897.4C780.759 1897.52 780.185 1897.59 779.544 1897.59C777.982 1897.59 776.658 1897.02 775.572 1895.88C774.486 1894.74 773.943 1893.15 773.943 1891.11C773.943 1889.09 774.49 1887.45 775.584 1886.2C776.677 1884.94 778.107 1884.31 779.873 1884.31ZM783.236 1889.86C783.15 1888.95 782.951 1888.22 782.638 1887.67C782.06 1886.66 781.095 1886.15 779.744 1886.15C778.775 1886.15 777.962 1886.5 777.306 1887.2C776.65 1887.9 776.302 1888.79 776.263 1889.86L783.236 1889.86Z" fill-rule="evenodd"/>
<path clip-path="url(#TextBounds_3)" d="M773.451 1912.19L776.181 1912.19L779.064 1916.61L781.982 1912.19L784.548 1912.25L780.318 1918.31L784.736 1924.74L782.041 1924.74L778.923 1920.03L775.9 1924.74L773.228 1924.74L777.646 1918.31L773.451 1912.19Z" fill-rule="evenodd"/>
<path clip-path="url(#TextBounds_3)" d="M775.068 1936.29L777.201 1936.29L777.201 1939.79L779.205 1939.79L779.205 1941.51L777.201 1941.51L777.201 1949.7C777.201 1950.14 777.349 1950.44 777.646 1950.58C777.81 1950.67 778.084 1950.71 778.466 1950.71C778.568 1950.71 778.677 1950.71 778.794 1950.71C778.912 1950.7 779.048 1950.69 779.205 1950.68L779.205 1952.34C778.962 1952.41 778.71 1952.46 778.449 1952.49C778.187 1952.52 777.904 1952.54 777.599 1952.54C776.615 1952.54 775.947 1952.29 775.595 1951.78C775.244 1951.28 775.068 1950.63 775.068 1949.82L775.068 1941.51L773.369 1941.51L773.369 1939.79L775.068 1939.79L775.068 1936.29Z" fill-rule="evenodd"/>
</g>
<g fill="#1f212b" opacity="1" stroke="none">
<path clip-path="url(#TextBounds_4)" d="M788.875 1859.71L788.875 1861.76L783.074 1861.76L783.074 1876.93L780.707 1876.93L780.707 1861.76L774.906 1861.76L774.906 1859.71L788.875 1859.71Z" fill-rule="evenodd"/>
<path clip-path="url(#TextBounds_4)" d="M781.293 1891.69C782.183 1891.69 783.046 1891.9 783.882 1892.32C784.718 1892.74 785.355 1893.28 785.793 1893.94C786.214 1894.58 786.496 1895.31 786.636 1896.16C786.761 1896.74 786.824 1897.66 786.824 1898.92L777.625 1898.92C777.664 1900.2 777.964 1901.22 778.527 1901.99C779.089 1902.76 779.961 1903.14 781.14 1903.14C782.242 1903.14 783.121 1902.78 783.777 1902.05C784.152 1901.63 784.418 1901.14 784.574 1900.59L786.648 1900.59C786.593 1901.05 786.412 1901.56 786.103 1902.13C785.795 1902.7 785.449 1903.16 785.066 1903.52C784.425 1904.14 783.632 1904.56 782.687 1904.78C782.179 1904.91 781.605 1904.97 780.964 1904.97C779.402 1904.97 778.078 1904.4 776.992 1903.27C775.906 1902.13 775.363 1900.54 775.363 1898.49C775.363 1896.47 775.91 1894.84 777.004 1893.58C778.097 1892.32 779.527 1891.69 781.293 1891.69ZM784.656 1897.25C784.57 1896.33 784.371 1895.6 784.058 1895.06C783.48 1894.04 782.515 1893.53 781.164 1893.53C780.195 1893.53 779.382 1893.88 778.726 1894.58C778.07 1895.28 777.722 1896.17 777.683 1897.25L784.656 1897.25Z" fill-rule="evenodd"/>
<path clip-path="url(#TextBounds_4)" d="M774.871 1919.57L777.601 1919.57L780.484 1923.99L783.402 1919.57L785.968 1919.63L781.738 1925.69L786.156 1932.13L783.461 1932.13L780.343 1927.41L777.32 1932.13L774.648 1932.13L779.066 1925.69L774.871 1919.57Z" fill-rule="evenodd"/>
<path clip-path="url(#TextBounds_4)" d="M776.488 1943.67L778.621 1943.67L778.621 1947.17L780.625 1947.17L780.625 1948.9L778.621 1948.9L778.621 1957.09C778.621 1957.53 778.769 1957.82 779.066 1957.97C779.23 1958.05 779.504 1958.1 779.886 1958.1C779.988 1958.1 780.097 1958.09 780.214 1958.09C780.332 1958.09 780.468 1958.08 780.625 1958.06L780.625 1959.73C780.382 1959.8 780.13 1959.85 779.869 1959.88C779.607 1959.91 779.324 1959.92 779.019 1959.92C778.035 1959.92 777.367 1959.67 777.015 1959.17C776.664 1958.66 776.488 1958.01 776.488 1957.21L776.488 1948.9L774.789 1948.9L774.789 1947.17L776.488 1947.17L776.488 1943.67Z" fill-rule="evenodd"/>
</g>
<g fill="#1f212b" opacity="1" stroke="none">
<path clip-path="url(#TextBounds_5)" d="M784.615 1865.39L784.615 1867.44L778.814 1867.44L778.814 1882.61L776.447 1882.61L776.447 1867.44L770.646 1867.44L770.646 1865.39L784.615 1865.39Z" fill-rule="evenodd"/>
<path clip-path="url(#TextBounds_5)" d="M777.033 1897.37C777.923 1897.37 778.786 1897.58 779.622 1898C780.458 1898.42 781.095 1898.96 781.533 1899.62C781.954 1900.26 782.236 1900.99 782.376 1901.84C782.501 1902.42 782.564 1903.34 782.564 1904.6L773.365 1904.6C773.404 1905.88 773.704 1906.9 774.267 1907.67C774.829 1908.44 775.701 1908.82 776.88 1908.82C777.982 1908.82 778.861 1908.46 779.517 1907.73C779.892 1907.31 780.158 1906.82 780.314 1906.27L782.388 1906.27C782.333 1906.73 782.152 1907.24 781.843 1907.81C781.535 1908.38 781.189 1908.84 780.806 1909.2C780.165 1909.82 779.372 1910.24 778.427 1910.46C777.919 1910.59 777.345 1910.65 776.704 1910.65C775.142 1910.65 773.818 1910.08 772.732 1908.95C771.646 1907.81 771.103 1906.22 771.103 1904.17C771.103 1902.15 771.65 1900.52 772.744 1899.26C773.837 1898 775.267 1897.37 777.033 1897.37ZM780.396 1902.93C780.31 1902.01 780.111 1901.28 779.798 1900.74C779.22 1899.72 778.255 1899.21 776.904 1899.21C775.935 1899.21 775.122 1899.56 774.466 1900.26C773.81 1900.96 773.462 1901.85 773.423 1902.93L780.396 1902.93Z" fill-rule="evenodd"/>
<path clip-path="url(#TextBounds_5)" d="M770.611 1925.25L773.341 1925.25L776.224 1929.67L779.142 1925.25L781.708 1925.31L777.478 1931.37L781.896 1937.81L779.201 1937.81L776.083 1933.09L773.06 1937.81L770.388 1937.81L774.806 1931.37L770.611 1925.25Z" fill-rule="evenodd"/>
<path clip-path="url(#TextBounds_5)" d="M772.228 1949.35L774.361 1949.35L774.361 1952.85L776.365 1952.85L776.365 1954.58L774.361 1954.58L774.361 1962.77C774.361 1963.21 774.509 1963.5 774.806 1963.65C774.97 1963.73 775.244 1963.78 775.626 1963.78C775.728 1963.78 775.837 1963.77 775.954 1963.77C776.072 1963.77 776.208 1963.76 776.365 1963.74L776.365 1965.41C776.122 1965.48 775.87 1965.53 775.609 1965.56C775.347 1965.59 775.064 1965.6 774.759 1965.6C773.775 1965.6 773.107 1965.35 772.755 1964.85C772.404 1964.34 772.228 1963.69 772.228 1962.89L772.228 1954.58L770.529 1954.58L770.529 1952.85L772.228 1952.85L772.228 1949.35Z" fill-rule="evenodd"/>
</g>
</g>
</svg>
