<?xml version="1.0" encoding="UTF-8" standalone="no"?>
<!DOCTYPE svg PUBLIC "-//W3C//DTD SVG 1.1//EN" "http://www.w3.org/Graphics/SVG/1.1/DTD/svg11.dtd"
[
<!ATTLIST g
  xmlns:vectornator CDATA #FIXED "http://vectornator.io"
  vectornator:layerName CDATA #IMPLIED >
<!ATTLIST g
  xmlns:vectornator CDATA #FIXED "http://vectornator.io"
  vectornator:mask CDATA #IMPLIED >
<!ATTLIST text
  xmlns:vectornator CDATA #FIXED "http://vectornator.io"
  vectornator:width CDATA #IMPLIED >
<!ATTLIST text
  xmlns:vectornator CDATA #FIXED "http://vectornator.io"
  vectornator:text CDATA #IMPLIED >

<!ATTLIST path
  xmlns:vectornator CDATA #FIXED "http://vectornator.io"
  vectornator:blendMode CDATA #IMPLIED >
<!ATTLIST path
  xmlns:vectornator CDATA #FIXED "http://vectornator.io"
  vectornator:shadowColor CDATA #IMPLIED >
<!ATTLIST path
  xmlns:vectornator CDATA #FIXED "http://vectornator.io"
  vectornator:shadowOpacity CDATA #IMPLIED >
<!ATTLIST path
  xmlns:vectornator CDATA #FIXED "http://vectornator.io"
  vectornator:shadowRadius CDATA #IMPLIED >
<!ATTLIST path
  xmlns:vectornator CDATA #FIXED "http://vectornator.io"
  vectornator:shadowOffset CDATA #IMPLIED >
<!ATTLIST path
  xmlns:vectornator CDATA #FIXED "http://vectornator.io"
  vectornator:shadowAngle CDATA #IMPLIED >

<!ATTLIST image
  xmlns:vectornator CDATA #FIXED "http://vectornator.io"
  vectornator:blendMode CDATA #IMPLIED >
<!ATTLIST image
  xmlns:vectornator CDATA #FIXED "http://vectornator.io"
  vectornator:shadowColor CDATA #IMPLIED >
<!ATTLIST image
  xmlns:vectornator CDATA #FIXED "http://vectornator.io"
  vectornator:shadowOpacity CDATA #IMPLIED >
<!ATTLIST image
  xmlns:vectornator CDATA #FIXED "http://vectornator.io"
  vectornator:shadowRadius CDATA #IMPLIED >
<!ATTLIST image
  xmlns:vectornator CDATA #FIXED "http://vectornator.io"
  vectornator:shadowOffset CDATA #IMPLIED >
<!ATTLIST image
  xmlns:vectornator CDATA #FIXED "http://vectornator.io"
  vectornator:shadowAngle CDATA #IMPLIED >

<!ATTLIST g
  xmlns:vectornator CDATA #FIXED "http://vectornator.io"
  vectornator:blendMode CDATA #IMPLIED >
<!ATTLIST g
  xmlns:vectornator CDATA #FIXED "http://vectornator.io"
  vectornator:shadowColor CDATA #IMPLIED >
<!ATTLIST g
  xmlns:vectornator CDATA #FIXED "http://vectornator.io"
  vectornator:shadowOpacity CDATA #IMPLIED >
<!ATTLIST g
  xmlns:vectornator CDATA #FIXED "http://vectornator.io"
  vectornator:shadowRadius CDATA #IMPLIED >
<!ATTLIST g
  xmlns:vectornator CDATA #FIXED "http://vectornator.io"
  vectornator:shadowOffset CDATA #IMPLIED >
<!ATTLIST g
  xmlns:vectornator CDATA #FIXED "http://vectornator.io"
  vectornator:shadowAngle CDATA #IMPLIED >

<!ENTITY % SVG.filter.extra.content  "| feDropShadow" >
<!ELEMENT feDropShadow EMPTY>
<!ATTLIST feDropShadow
  xmlns:svg CDATA #FIXED "http://www.w3.org/Graphics/SVG/1.1/DTD/svg11.dtd"
  dx CDATA #IMPLIED>
<!ATTLIST feDropShadow
  xmlns:svg CDATA #FIXED "http://www.w3.org/Graphics/SVG/1.1/DTD/svg11.dtd"
  dy CDATA #IMPLIED>
<!ATTLIST feDropShadow
  xmlns:svg CDATA #FIXED "http://www.w3.org/Graphics/SVG/1.1/DTD/svg11.dtd"
  stdDeviation CDATA #IMPLIED>
<!ATTLIST feDropShadow
  xmlns:svg CDATA #FIXED "http://www.w3.org/Graphics/SVG/1.1/DTD/svg11.dtd"
  flood-opacity CDATA #IMPLIED>
<!ATTLIST feDropShadow
  xmlns:svg CDATA #FIXED "http://www.w3.org/Graphics/SVG/1.1/DTD/svg11.dtd"
  in CDATA #IMPLIED>
<!ATTLIST feDropShadow
  xmlns:svg CDATA #FIXED "http://www.w3.org/Graphics/SVG/1.1/DTD/svg11.dtd"
  result CDATA #IMPLIED>
<!ATTLIST feDropShadow
  xmlns:svg CDATA #FIXED "http://www.w3.org/Graphics/SVG/1.1/DTD/svg11.dtd"
  flood-color CDATA #IMPLIED>
]
>
<!-- Created with Vectornator (http://vectornator.io/) -->
<svg height="100%" stroke-miterlimit="10" style="fill-rule:nonzero;clip-rule:evenodd;stroke-linecap:round;stroke-linejoin:round;" version="1.1" viewBox="0 0 1024 1024" width="100%" xml:space="preserve" xmlns="http://www.w3.org/2000/svg" xmlns:vectornator="http://vectornator.io" xmlns:xlink="http://www.w3.org/1999/xlink">
<defs/>
<clipPath id="ArtboardFrame">
<rect height="1024" width="1024" x="0" y="0"/>
</clipPath>
<g clip-path="url(#ArtboardFrame)" id="Layer-1" vectornator:layerName="Layer 1">
<path d="M14.9728 1046.01L1059.03 1046.01L1088.03 1010.39L1088.03 583.4L1059.03 618.985L14.9728 618.985L-14.0288 583.4L-14.0288 1010.39L14.9728 1046.01Z" fill="#81d4fa" fill-rule="evenodd" opacity="1" stroke="none"/>
<path d="M1050.19 1121.4L992.186 1121.4C992.186 1147.02 966.172 1167.82 934.183 1167.82C902.165 1167.82 876.18 1147.02 876.18 1121.4L818.177 1121.4C818.177 1147.02 792.162 1167.82 760.173 1167.82C728.156 1167.82 702.17 1147.02 702.17 1121.4L644.167 1121.4C644.167 1147.02 618.153 1167.82 586.164 1167.82C554.146 1167.82 528.161 1147.02 528.161 1121.4L470.158 1121.4C470.158 1147.02 444.144 1167.82 412.155 1167.82C380.137 1167.82 354.152 1147.02 354.152 1121.4L296.149 1121.4C296.149 1147.02 270.134 1167.82 238.146 1167.82C206.128 1167.82 180.142 1147.02 180.142 1121.4L122.139 1121.4C122.139 1147.02 96.125 1167.82 64.1363 1167.82C32.1186 1167.82 6.13318 1147.02 6.13318 1121.4L-51.8699 1121.4C-51.8699 1121.4-51.8699 1214.25 64.1363 1214.25C98.9381 1214.25 129.854 1201.67 151.141 1182.17C172.428 1201.67 203.344 1214.25 238.146 1214.25C272.947 1214.25 303.863 1201.67 325.15 1182.17C346.437 1201.67 377.353 1214.25 412.155 1214.25C446.957 1214.25 477.872 1201.67 499.16 1182.17C520.447 1201.67 551.362 1214.25 586.164 1214.25C620.966 1214.25 651.882 1201.67 673.169 1182.17C694.456 1201.67 725.372 1214.25 760.173 1214.25C794.975 1214.25 825.891 1201.67 847.178 1182.17C868.465 1201.67 899.381 1214.25 934.183 1214.25C1050.19 1214.25 1050.19 1121.4 1050.19 1121.4ZM1050.19 749.962L992.186 749.962C992.186 775.591 966.172 796.392 934.183 796.392C902.165 796.392 876.18 775.591 876.18 749.962L818.177 749.962C818.177 775.591 792.162 796.392 760.173 796.392C728.156 796.392 702.17 775.591 702.17 749.962L644.167 749.962C644.167 775.591 618.153 796.392 586.164 796.392C554.146 796.392 528.161 775.591 528.161 749.962L470.158 749.962C470.158 775.591 444.144 796.392 412.155 796.392C380.137 796.392 354.152 775.591 354.152 749.962L296.149 749.962C296.149 775.591 270.134 796.392 238.146 796.392C206.128 796.392 180.142 775.591 180.142 749.962L122.139 749.962C122.139 775.591 96.125 796.392 64.1363 796.392C32.1186 796.392 6.13318 775.591 6.13318 749.962L-51.8699 749.962C-51.8699 749.962-51.8699 842.821 64.1363 842.821C98.9381 842.821 129.854 830.238 151.141 810.738C172.428 830.238 203.344 842.821 238.146 842.821C272.947 842.821 303.863 830.238 325.15 810.738C346.437 830.238 377.353 842.821 412.155 842.821C446.957 842.821 477.872 830.238 499.16 810.738C520.447 830.238 551.362 842.821 586.164 842.821C620.966 842.821 651.882 830.238 673.169 810.738C694.456 830.238 725.372 842.821 760.173 842.821C794.975 842.821 825.891 830.238 847.178 810.738C868.465 830.238 899.381 842.821 934.183 842.821C1050.19 842.821 1050.19 749.962 1050.19 749.962ZM1050.19 564.246L992.186 564.246C992.186 589.875 966.172 610.675 934.183 610.675C902.165 610.675 876.18 589.875 876.18 564.246L818.177 564.246C818.177 589.875 792.162 610.675 760.173 610.675C728.156 610.675 702.17 589.875 702.17 564.246L644.167 564.246C644.167 589.875 618.153 610.675 586.164 610.675C554.146 610.675 528.161 589.875 528.161 564.246L470.158 564.246C470.158 589.875 444.144 610.675 412.155 610.675C380.137 610.675 354.152 589.875 354.152 564.246L296.149 564.246C296.149 589.875 270.134 610.675 238.146 610.675C206.128 610.675 180.142 589.875 180.142 564.246L122.139 564.246C122.139 589.875 96.125 610.675 64.1363 610.675C32.1186 610.675 6.13318 589.875 6.13318 564.246L-51.8699 564.246C-51.8699 564.246-51.8699 657.104 64.1363 657.104C98.9381 657.104 129.854 644.522 151.141 625.022C172.428 644.522 203.344 657.104 238.146 657.104C272.947 657.104 303.863 644.522 325.15 625.022C346.437 644.522 377.353 657.104 412.155 657.104C446.957 657.104 477.872 644.522 499.16 625.022C520.447 644.522 551.362 657.104 586.164 657.104C620.966 657.104 651.882 644.522 673.169 625.022C694.456 644.522 725.372 657.104 760.173 657.104C794.975 657.104 825.891 644.522 847.178 625.022C868.465 644.522 899.381 657.104 934.183 657.104C1050.19 657.104 1050.19 564.246 1050.19 564.246ZM1050.19 897.106L992.186 897.106C992.186 933.381 966.172 962.822 934.183 962.822C902.165 962.822 876.18 933.381 876.18 897.106L818.177 897.106C818.177 933.381 792.162 962.822 760.173 962.822C728.156 962.822 702.17 933.381 702.17 897.106L644.167 897.106C644.167 933.381 618.153 962.822 586.164 962.822C554.146 962.822 528.161 933.381 528.161 897.106L470.158 897.106C470.158 933.381 444.144 962.822 412.155 962.822C380.137 962.822 354.152 933.381 354.152 897.106L296.149 897.106C296.149 933.381 270.134 962.822 238.146 962.822C206.128 962.822 180.142 933.381 180.142 897.106L122.139 897.106C122.139 933.381 96.125 962.822 64.1363 962.822C32.1186 962.822 6.13318 933.381 6.13318 897.106L-51.8699 897.106C-51.8699 897.106-51.8699 1028.54 64.1363 1028.54C98.9381 1028.54 129.854 1010.73 151.141 983.128C172.428 1010.73 203.344 1028.54 238.146 1028.54C272.947 1028.54 303.863 1010.73 325.15 983.128C346.437 1010.73 377.353 1028.54 412.155 1028.54C446.957 1028.54 477.872 1010.73 499.16 983.128C520.447 1010.73 551.362 1028.54 586.164 1028.54C620.966 1028.54 651.882 1010.73 673.169 983.128C694.456 1010.73 725.372 1028.54 760.173 1028.54C794.975 1028.54 825.891 1010.73 847.178 983.128C868.465 1010.73 899.381 1028.54 934.183 1028.54C1050.19 1028.54 1050.19 897.106 1050.19 897.106Z" fill="#03a9f4" fill-rule="evenodd" opacity="1" stroke="#000000" stroke-linecap="round" stroke-linejoin="round" stroke-width="18.8627"/>
<path d="M581.061 666.35C581.061 666.141 581.436 665.971 581.899 665.971C582.362 665.971 582.738 666.141 582.738 666.35C582.738 666.56 582.362 666.729 581.899 666.729C581.436 666.729 581.061 666.56 581.061 666.35Z" fill="#d9fe0d" fill-rule="evenodd" opacity="1" stroke="none"/>
<path d="M244.396 806.177L349.248 869.163L337.66 953.082L235.611 982.986L244.396 806.177Z" fill="#d9fe0d" fill-rule="evenodd" opacity="1" stroke="#000000" stroke-linecap="round" stroke-linejoin="round" stroke-width="26.8126"/>
<path d="M170.33 638.411L467.752 635.051L450.345 758.789L202.313 825.449L170.33 638.411Z" fill="#d9fe0d" fill-rule="evenodd" opacity="1" stroke="#000000" stroke-linecap="round" stroke-linejoin="round" stroke-width="26.8126"/>
<path d="M521.605 19.1847L541.009 19.1847C547.972 19.1847 553.617 44.4074 553.617 75.5211L553.617 807.51C553.617 838.624 547.972 863.847 541.009 863.847L521.605 863.847C514.642 863.847 508.997 838.624 508.997 807.51L508.997 75.5211C508.997 44.4074 514.642 19.1847 521.605 19.1847Z" fill="#d9fe0d" fill-rule="evenodd" opacity="1" stroke="#000000" stroke-linecap="round" stroke-linejoin="round" stroke-width="26.8126"/>
<path d="M681.589 755.737C640.298 755.884 563.646 751.259 444.84 749.346C365.654 748.071 417.165 696.746 387.881 697.035C298.81 697.911 214.469 698.745 169.698 700.571C170.808 728.693 181.357 756.217 188.019 785.485C195.511 818.399 194.334 839.3 215.428 839.005C311.669 837.662 300.146 861.219 298.762 878.673C293.721 942.261 271.351 980.492 307.151 979.337C442.024 974.988 461.732 977.473 536.886 977.473C728.248 977.473 736.936 929.984 791.52 827.169C875.681 668.645 877.185 674.498 878.262 658.703C702.419 649.978 855.811 755.116 681.589 755.737Z" fill="#d9fe0d" fill-rule="evenodd" opacity="1" stroke="#000000" stroke-linecap="round" stroke-linejoin="round" stroke-width="26.8126"/>
<path d="M269.439 488.254C265.018 487.011 260.596 485.767 256.175 484.524" fill="#d9fe0d" fill-rule="evenodd" opacity="1" stroke="none"/>
<path d="M430.169 71.5332L631.929 71.5332C631.929 71.5332 668.057 131.063 672.621 168.62C676.578 201.186 631.929 241.969 631.929 241.969L430.169 241.969C430.169 241.969 476.223 198.142 472.898 165.273C469.573 132.403 430.169 71.5332 430.169 71.5332Z" fill="#d9fe0d" fill-rule="evenodd" opacity="1" stroke="#000000" stroke-linecap="round" stroke-linejoin="round" stroke-width="26.8126"/>
<path d="M340.448 283.72L692.53 283.72C692.53 283.72 755.576 391.914 763.541 460.173C770.447 519.36 692.53 593.481 692.53 593.481L340.448 593.481C340.448 593.481 420.815 513.828 415.013 454.089C409.211 394.349 340.448 283.72 340.448 283.72Z" fill="#d9fe0d" fill-rule="evenodd" opacity="1" stroke="#000000" stroke-linecap="round" stroke-linejoin="round" stroke-width="26.8126"/>
</g>
</svg>
